<?xml version="1.0" encoding="utf-8" standalone="no"?>
<!DOCTYPE svg PUBLIC "-//W3C//DTD SVG 1.1//EN"
  "http://www.w3.org/Graphics/SVG/1.1/DTD/svg11.dtd">
<svg xmlns:xlink="http://www.w3.org/1999/xlink" width="386.11425pt" height="319.537312pt" viewBox="0 0 386.11425 319.537312" xmlns="http://www.w3.org/2000/svg" version="1.1">
 <metadata>
  <rdf:RDF xmlns:dc="http://purl.org/dc/elements/1.1/" xmlns:cc="http://creativecommons.org/ns#" xmlns:rdf="http://www.w3.org/1999/02/22-rdf-syntax-ns#">
   <cc:Work>
    <dc:type rdf:resource="http://purl.org/dc/dcmitype/StillImage"/>
    <dc:date>2026-07-30T14:45:16.896506</dc:date>
    <dc:format>image/svg+xml</dc:format>
    <dc:creator>
     <cc:Agent>
      <dc:title>Matplotlib v3.10.6, https://matplotlib.org/</dc:title>
     </cc:Agent>
    </dc:creator>
   </cc:Work>
  </rdf:RDF>
 </metadata>
 <defs>
  <style type="text/css">*{stroke-linejoin: round; stroke-linecap: butt}</style>
 </defs>
 <g id="figure_1">
  <g id="patch_1">
   <path d="M 0 319.537312 
L 386.11425 319.537312 
L 386.11425 0 
L 0 0 
z
" style="fill: #ffffff"/>
  </g>
  <g id="axes_1">
   <g id="patch_2">
    <path d="M 51.54625 293.192 
L 373.94625 293.192 
L 373.94625 58.392 
L 51.54625 58.392 
z
" style="fill: #ffffff"/>
   </g>
   <g id="line2d_1">
    <path d="M 51.54625 246.372168 
L 373.94625 246.372168 
" clip-path="url(#p885e7e8fe4)" style="fill: none; stroke: #000000; stroke-width: 0.9; stroke-linecap: square"/>
   </g>
   <g id="matplotlib.axis_1">
    <g id="xtick_1">
     <g id="line2d_2">
      <defs>
       <path id="m49341740d9" d="M 0 0 
L 0 4 
" style="stroke: #000000"/>
      </defs>
      <g>
       <use xlink:href="#m49341740d9" x="88.74625" y="293.192" style="stroke: #000000"/>
      </g>
     </g>
     <g id="text_1">
      <text style="font-size: 10px; font-family: 'Arial'; text-anchor: middle" x="88.74625" y="310.349812" transform="rotate(-0 88.74625 310.349812)">Baseline</text>
     </g>
    </g>
    <g id="xtick_2">
     <g id="line2d_3">
      <g>
       <use xlink:href="#m49341740d9" x="171.412917" y="293.192" style="stroke: #000000"/>
      </g>
     </g>
     <g id="text_2">
      <text style="font-size: 10px; font-family: 'Arial'; text-anchor: middle" x="171.412917" y="310.349812" transform="rotate(-0 171.412917 310.349812)">H2O2 1mM first half</text>
     </g>
    </g>
    <g id="xtick_3">
     <g id="line2d_4">
      <g>
       <use xlink:href="#m49341740d9" x="254.079583" y="293.192" style="stroke: #000000"/>
      </g>
     </g>
     <g id="text_3">
      <text style="font-size: 10px; font-family: 'Arial'; text-anchor: middle" x="254.079583" y="310.349812" transform="rotate(-0 254.079583 310.349812)">H2O2 1mM second half</text>
     </g>
    </g>
    <g id="xtick_4">
     <g id="line2d_5">
      <g>
       <use xlink:href="#m49341740d9" x="336.74625" y="293.192" style="stroke: #000000"/>
      </g>
     </g>
     <g id="text_4">
      <text style="font-size: 10px; font-family: 'Arial'; text-anchor: middle" x="336.74625" y="310.349812" transform="rotate(-0 336.74625 310.349812)">Post</text>
     </g>
    </g>
   </g>
   <g id="matplotlib.axis_2">
    <g id="ytick_1">
     <g id="line2d_6">
      <defs>
       <path id="m794cc1c171" d="M 0 0 
L -4 0 
" style="stroke: #000000"/>
      </defs>
      <g>
       <use xlink:href="#m794cc1c171" x="51.54625" y="275.272403" style="stroke: #000000"/>
      </g>
     </g>
     <g id="text_5">
      <text style="font-size: 10px; font-family: 'Arial'; text-anchor: end" x="44.04625" y="278.851309" transform="rotate(-0 44.04625 278.851309)">−100</text>
     </g>
    </g>
    <g id="ytick_2">
     <g id="line2d_7">
      <g>
       <use xlink:href="#m794cc1c171" x="51.54625" y="246.372168" style="stroke: #000000"/>
      </g>
     </g>
     <g id="text_6">
      <text style="font-size: 10px; font-family: 'Arial'; text-anchor: end" x="44.04625" y="249.951074" transform="rotate(-0 44.04625 249.951074)">0</text>
     </g>
    </g>
    <g id="ytick_3">
     <g id="line2d_8">
      <g>
       <use xlink:href="#m794cc1c171" x="51.54625" y="217.471932" style="stroke: #000000"/>
      </g>
     </g>
     <g id="text_7">
      <text style="font-size: 10px; font-family: 'Arial'; text-anchor: end" x="44.04625" y="221.050839" transform="rotate(-0 44.04625 221.050839)">100</text>
     </g>
    </g>
    <g id="ytick_4">
     <g id="line2d_9">
      <g>
       <use xlink:href="#m794cc1c171" x="51.54625" y="188.571697" style="stroke: #000000"/>
      </g>
     </g>
     <g id="text_8">
      <text style="font-size: 10px; font-family: 'Arial'; text-anchor: end" x="44.04625" y="192.150603" transform="rotate(-0 44.04625 192.150603)">200</text>
     </g>
    </g>
    <g id="ytick_5">
     <g id="line2d_10">
      <g>
       <use xlink:href="#m794cc1c171" x="51.54625" y="159.671462" style="stroke: #000000"/>
      </g>
     </g>
     <g id="text_9">
      <text style="font-size: 10px; font-family: 'Arial'; text-anchor: end" x="44.04625" y="163.250368" transform="rotate(-0 44.04625 163.250368)">300</text>
     </g>
    </g>
    <g id="ytick_6">
     <g id="line2d_11">
      <g>
       <use xlink:href="#m794cc1c171" x="51.54625" y="130.771227" style="stroke: #000000"/>
      </g>
     </g>
     <g id="text_10">
      <text style="font-size: 10px; font-family: 'Arial'; text-anchor: end" x="44.04625" y="134.350133" transform="rotate(-0 44.04625 134.350133)">400</text>
     </g>
    </g>
    <g id="ytick_7">
     <g id="line2d_12">
      <g>
       <use xlink:href="#m794cc1c171" x="51.54625" y="101.870991" style="stroke: #000000"/>
      </g>
     </g>
     <g id="text_11">
      <text style="font-size: 10px; font-family: 'Arial'; text-anchor: end" x="44.04625" y="105.449898" transform="rotate(-0 44.04625 105.449898)">500</text>
     </g>
    </g>
    <g id="ytick_8">
     <g id="line2d_13">
      <g>
       <use xlink:href="#m794cc1c171" x="51.54625" y="72.970756" style="stroke: #000000"/>
      </g>
     </g>
     <g id="text_12">
      <text style="font-size: 10px; font-family: 'Arial'; text-anchor: end" x="44.04625" y="76.549662" transform="rotate(-0 44.04625 76.549662)">600</text>
     </g>
    </g>
    <g id="text_13">
     <text style="font-size: 11px; font-family: 'Arial'; text-anchor: middle" x="15.207656" y="175.792" transform="rotate(-90 15.207656 175.792)">Firing change from Baseline (%)</text>
    </g>
   </g>
   <g id="patch_3">
    <path d="M 63.119583 246.372168 
L 114.372917 246.372168 
L 114.372917 249.583089 
L 63.119583 249.583089 
z
" clip-path="url(#p885e7e8fe4)" style="fill: #ffffff; stroke: #000000; stroke-width: 1.1; stroke-linejoin: miter"/>
   </g>
   <g id="patch_4">
    <path d="M 145.78625 246.372168 
L 197.039583 246.372168 
L 197.039583 151.719163 
L 145.78625 151.719163 
z
" clip-path="url(#p885e7e8fe4)" style="fill: #777777; stroke: #000000; stroke-width: 1.1; stroke-linejoin: miter"/>
   </g>
   <g id="patch_5">
    <path d="M 228.452917 246.372168 
L 279.70625 246.372168 
L 279.70625 273.770969 
L 228.452917 273.770969 
z
" clip-path="url(#p885e7e8fe4)" style="fill: #777777; stroke: #000000; stroke-width: 1.1; stroke-linejoin: miter"/>
   </g>
   <g id="patch_6">
    <path d="M 311.119583 246.372168 
L 362.372917 246.372168 
L 362.372917 265.068992 
L 311.119583 265.068992 
z
" clip-path="url(#p885e7e8fe4)" style="stroke: #000000; stroke-width: 1.1; stroke-linejoin: miter"/>
   </g>
   <g id="line2d_14">
    <path d="M 88.74625 102.813622 
L 88.74625 96.467676 
L 171.412917 96.467676 
L 171.412917 102.813622 
" clip-path="url(#p885e7e8fe4)" style="fill: none; stroke: #000000; stroke-linecap: square"/>
   </g>
   <g id="line2d_15">
    <path d="M 88.74625 83.775784 
L 88.74625 77.429838 
L 254.079583 77.429838 
L 254.079583 83.775784 
" clip-path="url(#p885e7e8fe4)" style="fill: none; stroke: #000000; stroke-linecap: square"/>
   </g>
   <g id="line2d_16">
    <path d="M 88.74625 64.737946 
L 88.74625 58.392 
L 336.74625 58.392 
L 336.74625 64.737946 
" clip-path="url(#p885e7e8fe4)" style="fill: none; stroke: #000000; stroke-linecap: square"/>
   </g>
   <g id="LineCollection_1">
    <path d="M 88.74625 253.926723 
L 88.74625 245.239454 
" clip-path="url(#p885e7e8fe4)" style="fill: none; stroke: #000000"/>
   </g>
   <g id="line2d_17">
    <defs>
     <path id="m5e29e096ef" d="M 4 0 
L -4 -0 
" style="stroke: #000000"/>
    </defs>
    <g clip-path="url(#p885e7e8fe4)">
     <use xlink:href="#m5e29e096ef" x="88.74625" y="253.926723" style="fill: #1f77b4; stroke: #000000"/>
    </g>
   </g>
   <g id="line2d_18">
    <g clip-path="url(#p885e7e8fe4)">
     <use xlink:href="#m5e29e096ef" x="88.74625" y="245.239454" style="fill: #1f77b4; stroke: #000000"/>
    </g>
   </g>
   <g id="LineCollection_2">
    <path d="M 171.412917 187.932813 
L 171.412917 115.505514 
" clip-path="url(#p885e7e8fe4)" style="fill: none; stroke: #000000"/>
   </g>
   <g id="line2d_19">
    <g clip-path="url(#p885e7e8fe4)">
     <use xlink:href="#m5e29e096ef" x="171.412917" y="187.932813" style="fill: #1f77b4; stroke: #000000"/>
    </g>
   </g>
   <g id="line2d_20">
    <g clip-path="url(#p885e7e8fe4)">
     <use xlink:href="#m5e29e096ef" x="171.412917" y="115.505514" style="fill: #1f77b4; stroke: #000000"/>
    </g>
   </g>
   <g id="LineCollection_3">
    <path d="M 254.079583 274.154162 
L 254.079583 273.387776 
" clip-path="url(#p885e7e8fe4)" style="fill: none; stroke: #000000"/>
   </g>
   <g id="line2d_21">
    <g clip-path="url(#p885e7e8fe4)">
     <use xlink:href="#m5e29e096ef" x="254.079583" y="274.154162" style="fill: #1f77b4; stroke: #000000"/>
    </g>
   </g>
   <g id="line2d_22">
    <g clip-path="url(#p885e7e8fe4)">
     <use xlink:href="#m5e29e096ef" x="254.079583" y="273.387776" style="fill: #1f77b4; stroke: #000000"/>
    </g>
   </g>
   <g id="LineCollection_4">
    <path d="M 336.74625 268.25873 
L 336.74625 261.879255 
" clip-path="url(#p885e7e8fe4)" style="fill: none; stroke: #000000"/>
   </g>
   <g id="line2d_23">
    <g clip-path="url(#p885e7e8fe4)">
     <use xlink:href="#m5e29e096ef" x="336.74625" y="268.25873" style="fill: #1f77b4; stroke: #000000"/>
    </g>
   </g>
   <g id="line2d_24">
    <g clip-path="url(#p885e7e8fe4)">
     <use xlink:href="#m5e29e096ef" x="336.74625" y="261.879255" style="fill: #1f77b4; stroke: #000000"/>
    </g>
   </g>
   <g id="patch_7">
    <path d="M 51.54625 293.192 
L 51.54625 58.392 
" style="fill: none; stroke: #000000; stroke-width: 1.1; stroke-linejoin: miter; stroke-linecap: square"/>
   </g>
   <g id="patch_8">
    <path d="M 51.54625 293.192 
L 373.94625 293.192 
" style="fill: none; stroke: #000000; stroke-linejoin: miter; stroke-linecap: square"/>
   </g>
   <g id="PathCollection_1">
    <path d="M 88.74625 251.704409 
C 89.308831 251.704409 89.848445 251.480893 90.24625 251.083089 
C 90.644055 250.685284 90.86757 250.145669 90.86757 249.583089 
C 90.86757 249.020508 90.644055 248.480893 90.24625 248.083089 
C 89.848445 247.685284 89.308831 247.461768 88.74625 247.461768 
C 88.183669 247.461768 87.644055 247.685284 87.24625 248.083089 
C 86.848445 248.480893 86.62493 249.020508 86.62493 249.583089 
C 86.62493 250.145669 86.848445 250.685284 87.24625 251.083089 
C 87.644055 251.480893 88.183669 251.704409 88.74625 251.704409 
z
" clip-path="url(#p885e7e8fe4)" style="fill: #555555; fill-opacity: 0.75"/>
   </g>
   <g id="PathCollection_2">
    <path d="M 171.412917 153.840483 
C 171.975497 153.840483 172.515112 153.616968 172.912917 153.219163 
C 173.310721 152.821358 173.534237 152.281744 173.534237 151.719163 
C 173.534237 151.156582 173.310721 150.616968 172.912917 150.219163 
C 172.515112 149.821358 171.975497 149.597843 171.412917 149.597843 
C 170.850336 149.597843 170.310721 149.821358 169.912917 150.219163 
C 169.515112 150.616968 169.291596 151.156582 169.291596 151.719163 
C 169.291596 152.281744 169.515112 152.821358 169.912917 153.219163 
C 170.310721 153.616968 170.850336 153.840483 171.412917 153.840483 
z
" clip-path="url(#p885e7e8fe4)" style="fill: #555555; fill-opacity: 0.75"/>
   </g>
   <g id="PathCollection_3">
    <path d="M 254.079583 275.89229 
C 254.642164 275.89229 255.181779 275.668774 255.579583 275.270969 
C 255.977388 274.873165 256.200904 274.33355 256.200904 273.770969 
C 256.200904 273.208388 255.977388 272.668774 255.579583 272.270969 
C 255.181779 271.873165 254.642164 271.649649 254.079583 271.649649 
C 253.517003 271.649649 252.977388 271.873165 252.579583 272.270969 
C 252.181779 272.668774 251.958263 273.208388 251.958263 273.770969 
C 251.958263 274.33355 252.181779 274.873165 252.579583 275.270969 
C 252.977388 275.668774 253.517003 275.89229 254.079583 275.89229 
z
" clip-path="url(#p885e7e8fe4)" style="fill: #555555; fill-opacity: 0.75"/>
   </g>
   <g id="PathCollection_4">
    <path d="M 336.74625 267.190313 
C 337.308831 267.190313 337.848445 266.966797 338.24625 266.568992 
C 338.644055 266.171188 338.86757 265.631573 338.86757 265.068992 
C 338.86757 264.506411 338.644055 263.966797 338.24625 263.568992 
C 337.848445 263.171188 337.308831 262.947672 336.74625 262.947672 
C 336.183669 262.947672 335.644055 263.171188 335.24625 263.568992 
C 334.848445 263.966797 334.62493 264.506411 334.62493 265.068992 
C 334.62493 265.631573 334.848445 266.171188 335.24625 266.568992 
C 335.644055 266.966797 336.183669 267.190313 336.74625 267.190313 
z
" clip-path="url(#p885e7e8fe4)" style="fill: #555555; fill-opacity: 0.75"/>
   </g>
   <g id="text_14">
    <text style="font-weight: 700; font-size: 12px; font-family: 'Arial'; text-anchor: middle" x="130.079583" y="94.099551" transform="rotate(-0 130.079583 94.099551)">ns</text>
   </g>
   <g id="text_15">
    <text style="font-weight: 700; font-size: 12px; font-family: 'Arial'; text-anchor: middle" x="171.412917" y="75.061713" transform="rotate(-0 171.412917 75.061713)">ns</text>
   </g>
   <g id="text_16">
    <text style="font-weight: 700; font-size: 12px; font-family: 'Arial'; text-anchor: middle" x="212.74625" y="56.023875" transform="rotate(-0 212.74625 56.023875)">*</text>
   </g>
  </g>
  <g id="text_17">
   <text style="font-size: 13px; font-family: 'Arial'; text-anchor: middle" x="190.34625" y="16.505156" transform="rotate(-0 190.34625 16.505156)">Perfusion</text>
  </g>
  <g id="text_18">
   <g id="patch_9">
    <path d="M 347.196438 29.840375 
L 380.67425 29.840375 
L 380.67425 16.276 
L 347.196438 16.276 
z
" style="fill: #ffffff; opacity: 0.85"/>
   </g>
   <text style="font-weight: 700; font-size: 11px; font-family: 'Arial'; text-anchor: end; fill: #111111" x="378.91425" y="25.909594" transform="rotate(-0 378.91425 25.909594)">A-008</text>
  </g>
 </g>
 <defs>
  <clipPath id="p885e7e8fe4">
   <rect x="51.54625" y="58.392" width="322.4" height="234.8"/>
  </clipPath>
 </defs>
</svg>
