<?xml version="1.0" encoding="utf-8" standalone="no"?>
<!DOCTYPE svg PUBLIC "-//W3C//DTD SVG 1.1//EN"
  "http://www.w3.org/Graphics/SVG/1.1/DTD/svg11.dtd">
<svg xmlns:xlink="http://www.w3.org/1999/xlink" width="272.640687pt" height="304.849312pt" viewBox="0 0 272.640687 304.849312" xmlns="http://www.w3.org/2000/svg" version="1.1">
 <metadata>
  <rdf:RDF xmlns:dc="http://purl.org/dc/elements/1.1/" xmlns:cc="http://creativecommons.org/ns#" xmlns:rdf="http://www.w3.org/1999/02/22-rdf-syntax-ns#">
   <cc:Work>
    <dc:type rdf:resource="http://purl.org/dc/dcmitype/StillImage"/>
    <dc:date>2026-07-30T14:45:14.603033</dc:date>
    <dc:format>image/svg+xml</dc:format>
    <dc:creator>
     <cc:Agent>
      <dc:title>Matplotlib v3.10.6, https://matplotlib.org/</dc:title>
     </cc:Agent>
    </dc:creator>
   </cc:Work>
  </rdf:RDF>
 </metadata>
 <defs>
  <style type="text/css">*{stroke-linejoin: round; stroke-linecap: butt}</style>
 </defs>
 <g id="figure_1">
  <g id="patch_1">
   <path d="M 0 304.849312 
L 272.640687 304.849312 
L 272.640687 0 
L 0 0 
z
" style="fill: #ffffff"/>
  </g>
  <g id="axes_1">
   <g id="patch_2">
    <path d="M 40.144688 278.504 
L 258.744687 278.504 
L 258.744687 46.704 
L 40.144688 46.704 
z
" style="fill: #ffffff"/>
   </g>
   <g id="line2d_1">
    <path d="M 40.144688 278.504 
L 258.744687 278.504 
" clip-path="url(#pe6f456bbff)" style="fill: none; stroke: #000000; stroke-width: 0.9; stroke-linecap: square"/>
   </g>
   <g id="matplotlib.axis_1">
    <g id="xtick_1">
     <g id="line2d_2">
      <defs>
       <path id="mdb54d337b1" d="M 0 0 
L 0 4 
" style="stroke: #000000"/>
      </defs>
      <g>
       <use xlink:href="#mdb54d337b1" x="149.444687" y="278.504" style="stroke: #000000"/>
      </g>
     </g>
     <g id="text_1">
      <text style="font-size: 10px; font-family: 'Arial'; text-anchor: middle" x="149.444687" y="295.661812" transform="rotate(-0 149.444687 295.661812)">Baseline</text>
     </g>
    </g>
   </g>
   <g id="matplotlib.axis_2">
    <g id="ytick_1">
     <g id="line2d_3">
      <defs>
       <path id="m9bf0961335" d="M 0 0 
L -4 0 
" style="stroke: #000000"/>
      </defs>
      <g>
       <use xlink:href="#m9bf0961335" x="40.144688" y="278.504" style="stroke: #000000"/>
      </g>
     </g>
     <g id="text_2">
      <text style="font-size: 10px; font-family: 'Arial'; text-anchor: end" x="32.644688" y="282.082906" transform="rotate(-0 32.644688 282.082906)">0</text>
     </g>
    </g>
    <g id="ytick_2">
     <g id="line2d_4">
      <g>
       <use xlink:href="#m9bf0961335" x="40.144688" y="238.047172" style="stroke: #000000"/>
      </g>
     </g>
     <g id="text_3">
      <text style="font-size: 10px; font-family: 'Arial'; text-anchor: end" x="32.644688" y="241.626078" transform="rotate(-0 32.644688 241.626078)">5</text>
     </g>
    </g>
    <g id="ytick_3">
     <g id="line2d_5">
      <g>
       <use xlink:href="#m9bf0961335" x="40.144688" y="197.590344" style="stroke: #000000"/>
      </g>
     </g>
     <g id="text_4">
      <text style="font-size: 10px; font-family: 'Arial'; text-anchor: end" x="32.644688" y="201.16925" transform="rotate(-0 32.644688 201.16925)">10</text>
     </g>
    </g>
    <g id="ytick_4">
     <g id="line2d_6">
      <g>
       <use xlink:href="#m9bf0961335" x="40.144688" y="157.133516" style="stroke: #000000"/>
      </g>
     </g>
     <g id="text_5">
      <text style="font-size: 10px; font-family: 'Arial'; text-anchor: end" x="32.644688" y="160.712422" transform="rotate(-0 32.644688 160.712422)">15</text>
     </g>
    </g>
    <g id="ytick_5">
     <g id="line2d_7">
      <g>
       <use xlink:href="#m9bf0961335" x="40.144688" y="116.676688" style="stroke: #000000"/>
      </g>
     </g>
     <g id="text_6">
      <text style="font-size: 10px; font-family: 'Arial'; text-anchor: end" x="32.644688" y="120.255594" transform="rotate(-0 32.644688 120.255594)">20</text>
     </g>
    </g>
    <g id="ytick_6">
     <g id="line2d_8">
      <g>
       <use xlink:href="#m9bf0961335" x="40.144688" y="76.21986" style="stroke: #000000"/>
      </g>
     </g>
     <g id="text_7">
      <text style="font-size: 10px; font-family: 'Arial'; text-anchor: end" x="32.644688" y="79.798766" transform="rotate(-0 32.644688 79.798766)">25</text>
     </g>
    </g>
    <g id="text_8">
     <text style="font-size: 11px; font-family: 'Arial'; text-anchor: middle" x="15.207656" y="162.604" transform="rotate(-90 15.207656 162.604)">Firing change from Baseline (%)</text>
    </g>
   </g>
   <g id="patch_3">
    <path d="M 91.813778 278.504 
L 207.075597 278.504 
L 207.075597 91.568516 
L 91.813778 91.568516 
z
" clip-path="url(#pe6f456bbff)" style="fill: #ffffff; stroke: #000000; stroke-width: 1.1; stroke-linejoin: miter"/>
   </g>
   <g id="patch_4">
    <path d="M 40.144688 278.504 
L 40.144688 46.704 
" style="fill: none; stroke: #000000; stroke-width: 1.1; stroke-linejoin: miter; stroke-linecap: square"/>
   </g>
   <g id="patch_5">
    <path d="M 40.144688 278.504 
L 258.744687 278.504 
" style="fill: none; stroke: #000000; stroke-linejoin: miter; stroke-linecap: square"/>
   </g>
   <g id="PathCollection_1">
    <path d="M 149.444687 93.689836 
C 150.007268 93.689836 150.546883 93.466321 150.944687 93.068516 
C 151.342492 92.670711 151.566008 92.131097 151.566008 91.568516 
C 151.566008 91.005935 151.342492 90.466321 150.944687 90.068516 
C 150.546883 89.670711 150.007268 89.447196 149.444687 89.447196 
C 148.882107 89.447196 148.342492 89.670711 147.944687 90.068516 
C 147.546883 90.466321 147.323367 91.005935 147.323367 91.568516 
C 147.323367 92.131097 147.546883 92.670711 147.944687 93.068516 
C 148.342492 93.466321 148.882107 93.689836 149.444687 93.689836 
z
" clip-path="url(#pe6f456bbff)" style="fill: #555555; fill-opacity: 0.75"/>
   </g>
  </g>
  <g id="text_9">
   <text style="font-size: 13px; font-family: 'Arial'; text-anchor: middle" x="132.744687" y="16.505156" transform="rotate(-0 132.744687 16.505156)">Baseline first half vs second half</text>
  </g>
  <g id="text_10">
   <g id="patch_6">
    <path d="M 233.722875 29.336375 
L 267.200687 29.336375 
L 267.200687 15.772 
L 233.722875 15.772 
z
" style="fill: #ffffff; opacity: 0.85"/>
   </g>
   <text style="font-weight: 700; font-size: 11px; font-family: 'Arial'; text-anchor: end; fill: #111111" x="265.440687" y="25.405594" transform="rotate(-0 265.440687 25.405594)">A-015</text>
  </g>
 </g>
 <defs>
  <clipPath id="pe6f456bbff">
   <rect x="40.144688" y="46.704" width="218.6" height="231.8"/>
  </clipPath>
 </defs>
</svg>
