<?xml version="1.0" encoding="utf-8" standalone="no"?>
<!DOCTYPE svg PUBLIC "-//W3C//DTD SVG 1.1//EN"
  "http://www.w3.org/Graphics/SVG/1.1/DTD/svg11.dtd">
<svg xmlns:xlink="http://www.w3.org/1999/xlink" width="381.14625pt" height="319.537312pt" viewBox="0 0 381.14625 319.537312" xmlns="http://www.w3.org/2000/svg" version="1.1">
 <metadata>
  <rdf:RDF xmlns:dc="http://purl.org/dc/elements/1.1/" xmlns:cc="http://creativecommons.org/ns#" xmlns:rdf="http://www.w3.org/1999/02/22-rdf-syntax-ns#">
   <cc:Work>
    <dc:type rdf:resource="http://purl.org/dc/dcmitype/StillImage"/>
    <dc:date>2026-07-30T14:02:45.482088</dc:date>
    <dc:format>image/svg+xml</dc:format>
    <dc:creator>
     <cc:Agent>
      <dc:title>Matplotlib v3.10.6, https://matplotlib.org/</dc:title>
     </cc:Agent>
    </dc:creator>
   </cc:Work>
  </rdf:RDF>
 </metadata>
 <defs>
  <style type="text/css">*{stroke-linejoin: round; stroke-linecap: butt}</style>
 </defs>
 <g id="figure_1">
  <g id="patch_1">
   <path d="M 0 319.537312 
L 381.14625 319.537312 
L 381.14625 0 
L 0 0 
z
" style="fill: #ffffff"/>
  </g>
  <g id="axes_1">
   <g id="patch_2">
    <path d="M 51.54625 293.192 
L 373.94625 293.192 
L 373.94625 61.992 
L 51.54625 61.992 
z
" style="fill: #ffffff"/>
   </g>
   <g id="line2d_1">
    <path d="M 51.54625 232.940667 
L 373.94625 232.940667 
" clip-path="url(#p8eb5927e5f)" style="fill: none; stroke: #000000; stroke-width: 0.9; stroke-linecap: square"/>
   </g>
   <g id="matplotlib.axis_1">
    <g id="xtick_1">
     <g id="line2d_2">
      <defs>
       <path id="mfeb218a5ec" d="M 0 0 
L 0 4 
" style="stroke: #000000"/>
      </defs>
      <g>
       <use xlink:href="#mfeb218a5ec" x="88.74625" y="293.192" style="stroke: #000000"/>
      </g>
     </g>
     <g id="text_1">
      <text style="font-size: 10px; font-family: 'Arial'; text-anchor: middle" x="88.74625" y="310.349812" transform="rotate(-0 88.74625 310.349812)">Baseline</text>
     </g>
    </g>
    <g id="xtick_2">
     <g id="line2d_3">
      <g>
       <use xlink:href="#mfeb218a5ec" x="171.412917" y="293.192" style="stroke: #000000"/>
      </g>
     </g>
     <g id="text_2">
      <text style="font-size: 10px; font-family: 'Arial'; text-anchor: middle" x="171.412917" y="310.349812" transform="rotate(-0 171.412917 310.349812)">H2O2 1mM first half</text>
     </g>
    </g>
    <g id="xtick_3">
     <g id="line2d_4">
      <g>
       <use xlink:href="#mfeb218a5ec" x="254.079583" y="293.192" style="stroke: #000000"/>
      </g>
     </g>
     <g id="text_3">
      <text style="font-size: 10px; font-family: 'Arial'; text-anchor: middle" x="254.079583" y="310.349812" transform="rotate(-0 254.079583 310.349812)">H2O2 1mM second half</text>
     </g>
    </g>
    <g id="xtick_4">
     <g id="line2d_5">
      <g>
       <use xlink:href="#mfeb218a5ec" x="336.74625" y="293.192" style="stroke: #000000"/>
      </g>
     </g>
     <g id="text_4">
      <text style="font-size: 10px; font-family: 'Arial'; text-anchor: middle" x="336.74625" y="310.349812" transform="rotate(-0 336.74625 310.349812)">Post</text>
     </g>
    </g>
   </g>
   <g id="matplotlib.axis_2">
    <g id="ytick_1">
     <g id="line2d_6">
      <defs>
       <path id="mddc1c43dda" d="M 0 0 
L -4 0 
" style="stroke: #000000"/>
      </defs>
      <g>
       <use xlink:href="#mddc1c43dda" x="51.54625" y="276.711224" style="stroke: #000000"/>
      </g>
     </g>
     <g id="text_5">
      <text style="font-size: 10px; font-family: 'Arial'; text-anchor: end" x="44.04625" y="280.29013" transform="rotate(-0 44.04625 280.29013)">−100</text>
     </g>
    </g>
    <g id="ytick_2">
     <g id="line2d_7">
      <g>
       <use xlink:href="#mddc1c43dda" x="51.54625" y="232.940667" style="stroke: #000000"/>
      </g>
     </g>
     <g id="text_6">
      <text style="font-size: 10px; font-family: 'Arial'; text-anchor: end" x="44.04625" y="236.519573" transform="rotate(-0 44.04625 236.519573)">0</text>
     </g>
    </g>
    <g id="ytick_3">
     <g id="line2d_8">
      <g>
       <use xlink:href="#mddc1c43dda" x="51.54625" y="189.170109" style="stroke: #000000"/>
      </g>
     </g>
     <g id="text_7">
      <text style="font-size: 10px; font-family: 'Arial'; text-anchor: end" x="44.04625" y="192.749016" transform="rotate(-0 44.04625 192.749016)">100</text>
     </g>
    </g>
    <g id="ytick_4">
     <g id="line2d_9">
      <g>
       <use xlink:href="#mddc1c43dda" x="51.54625" y="145.399552" style="stroke: #000000"/>
      </g>
     </g>
     <g id="text_8">
      <text style="font-size: 10px; font-family: 'Arial'; text-anchor: end" x="44.04625" y="148.978459" transform="rotate(-0 44.04625 148.978459)">200</text>
     </g>
    </g>
    <g id="ytick_5">
     <g id="line2d_10">
      <g>
       <use xlink:href="#mddc1c43dda" x="51.54625" y="101.628995" style="stroke: #000000"/>
      </g>
     </g>
     <g id="text_9">
      <text style="font-size: 10px; font-family: 'Arial'; text-anchor: end" x="44.04625" y="105.207902" transform="rotate(-0 44.04625 105.207902)">300</text>
     </g>
    </g>
    <g id="text_10">
     <text style="font-size: 11px; font-family: 'Arial'; text-anchor: middle" x="15.207656" y="177.592" transform="rotate(-90 15.207656 177.592)">Firing change from Baseline (%)</text>
    </g>
   </g>
   <g id="patch_3">
    <path d="M 63.119583 232.940667 
L 114.372917 232.940667 
L 114.372917 242.233034 
L 63.119583 242.233034 
z
" clip-path="url(#p8eb5927e5f)" style="fill: #ffffff; stroke: #000000; stroke-width: 1.1; stroke-linejoin: miter"/>
   </g>
   <g id="patch_4">
    <path d="M 145.78625 232.940667 
L 197.039583 232.940667 
L 197.039583 156.168615 
L 145.78625 156.168615 
z
" clip-path="url(#p8eb5927e5f)" style="fill: #777777; stroke: #000000; stroke-width: 1.1; stroke-linejoin: miter"/>
   </g>
   <g id="patch_5">
    <path d="M 228.452917 232.940667 
L 279.70625 232.940667 
L 279.70625 272.322976 
L 228.452917 272.322976 
z
" clip-path="url(#p8eb5927e5f)" style="fill: #777777; stroke: #000000; stroke-width: 1.1; stroke-linejoin: miter"/>
   </g>
   <g id="patch_6">
    <path d="M 311.119583 232.940667 
L 362.372917 232.940667 
L 362.372917 271.613551 
L 311.119583 271.613551 
z
" clip-path="url(#p8eb5927e5f)" style="stroke: #000000; stroke-width: 1.1; stroke-linejoin: miter"/>
   </g>
   <g id="line2d_11">
    <path d="M 88.74625 105.732541 
L 88.74625 99.483892 
L 171.412917 99.483892 
L 171.412917 105.732541 
" clip-path="url(#p8eb5927e5f)" style="fill: none; stroke: #000000; stroke-linecap: square"/>
   </g>
   <g id="line2d_12">
    <path d="M 88.74625 86.986595 
L 88.74625 80.737946 
L 254.079583 80.737946 
L 254.079583 86.986595 
" clip-path="url(#p8eb5927e5f)" style="fill: none; stroke: #000000; stroke-linecap: square"/>
   </g>
   <g id="line2d_13">
    <path d="M 88.74625 68.240649 
L 88.74625 61.992 
L 336.74625 61.992 
L 336.74625 68.240649 
" clip-path="url(#p8eb5927e5f)" style="fill: none; stroke: #000000; stroke-linecap: square"/>
   </g>
   <g id="LineCollection_1">
    <path d="M 88.74625 243.155742 
L 88.74625 241.310326 
" clip-path="url(#p8eb5927e5f)" style="fill: none; stroke: #000000"/>
   </g>
   <g id="line2d_14">
    <defs>
     <path id="m30cccbcf02" d="M 4 0 
L -4 -0 
" style="stroke: #000000"/>
    </defs>
    <g clip-path="url(#p8eb5927e5f)">
     <use xlink:href="#m30cccbcf02" x="88.74625" y="243.155742" style="fill: #1f77b4; stroke: #000000"/>
    </g>
   </g>
   <g id="line2d_15">
    <g clip-path="url(#p8eb5927e5f)">
     <use xlink:href="#m30cccbcf02" x="88.74625" y="241.310326" style="fill: #1f77b4; stroke: #000000"/>
    </g>
   </g>
   <g id="LineCollection_2">
    <path d="M 171.412917 194.107392 
L 171.412917 118.229838 
" clip-path="url(#p8eb5927e5f)" style="fill: none; stroke: #000000"/>
   </g>
   <g id="line2d_16">
    <g clip-path="url(#p8eb5927e5f)">
     <use xlink:href="#m30cccbcf02" x="171.412917" y="194.107392" style="fill: #1f77b4; stroke: #000000"/>
    </g>
   </g>
   <g id="line2d_17">
    <g clip-path="url(#p8eb5927e5f)">
     <use xlink:href="#m30cccbcf02" x="171.412917" y="118.229838" style="fill: #1f77b4; stroke: #000000"/>
    </g>
   </g>
   <g id="LineCollection_3">
    <path d="M 254.079583 274.446054 
L 254.079583 270.199897 
" clip-path="url(#p8eb5927e5f)" style="fill: none; stroke: #000000"/>
   </g>
   <g id="line2d_18">
    <g clip-path="url(#p8eb5927e5f)">
     <use xlink:href="#m30cccbcf02" x="254.079583" y="274.446054" style="fill: #1f77b4; stroke: #000000"/>
    </g>
   </g>
   <g id="line2d_19">
    <g clip-path="url(#p8eb5927e5f)">
     <use xlink:href="#m30cccbcf02" x="254.079583" y="270.199897" style="fill: #1f77b4; stroke: #000000"/>
    </g>
   </g>
   <g id="LineCollection_4">
    <path d="M 336.74625 273.923301 
L 336.74625 269.303802 
" clip-path="url(#p8eb5927e5f)" style="fill: none; stroke: #000000"/>
   </g>
   <g id="line2d_20">
    <g clip-path="url(#p8eb5927e5f)">
     <use xlink:href="#m30cccbcf02" x="336.74625" y="273.923301" style="fill: #1f77b4; stroke: #000000"/>
    </g>
   </g>
   <g id="line2d_21">
    <g clip-path="url(#p8eb5927e5f)">
     <use xlink:href="#m30cccbcf02" x="336.74625" y="269.303802" style="fill: #1f77b4; stroke: #000000"/>
    </g>
   </g>
   <g id="patch_7">
    <path d="M 51.54625 293.192 
L 51.54625 61.992 
" style="fill: none; stroke: #000000; stroke-width: 1.1; stroke-linejoin: miter; stroke-linecap: square"/>
   </g>
   <g id="patch_8">
    <path d="M 51.54625 293.192 
L 373.94625 293.192 
" style="fill: none; stroke: #000000; stroke-linejoin: miter; stroke-linecap: square"/>
   </g>
   <g id="PathCollection_1">
    <path d="M 88.74625 244.354354 
C 89.308831 244.354354 89.848445 244.130839 90.24625 243.733034 
C 90.644055 243.335229 90.86757 242.795615 90.86757 242.233034 
C 90.86757 241.670453 90.644055 241.130839 90.24625 240.733034 
C 89.848445 240.335229 89.308831 240.111714 88.74625 240.111714 
C 88.183669 240.111714 87.644055 240.335229 87.24625 240.733034 
C 86.848445 241.130839 86.62493 241.670453 86.62493 242.233034 
C 86.62493 242.795615 86.848445 243.335229 87.24625 243.733034 
C 87.644055 244.130839 88.183669 244.354354 88.74625 244.354354 
z
" clip-path="url(#p8eb5927e5f)" style="fill: #555555; fill-opacity: 0.75"/>
   </g>
   <g id="PathCollection_2">
    <path d="M 171.412917 158.289935 
C 171.975497 158.289935 172.515112 158.066419 172.912917 157.668615 
C 173.310721 157.27081 173.534237 156.731196 173.534237 156.168615 
C 173.534237 155.606034 173.310721 155.066419 172.912917 154.668615 
C 172.515112 154.27081 171.975497 154.047294 171.412917 154.047294 
C 170.850336 154.047294 170.310721 154.27081 169.912917 154.668615 
C 169.515112 155.066419 169.291596 155.606034 169.291596 156.168615 
C 169.291596 156.731196 169.515112 157.27081 169.912917 157.668615 
C 170.310721 158.066419 170.850336 158.289935 171.412917 158.289935 
z
" clip-path="url(#p8eb5927e5f)" style="fill: #555555; fill-opacity: 0.75"/>
   </g>
   <g id="PathCollection_3">
    <path d="M 254.079583 274.444296 
C 254.642164 274.444296 255.181779 274.22078 255.579583 273.822976 
C 255.977388 273.425171 256.200904 272.885556 256.200904 272.322976 
C 256.200904 271.760395 255.977388 271.22078 255.579583 270.822976 
C 255.181779 270.425171 254.642164 270.201655 254.079583 270.201655 
C 253.517003 270.201655 252.977388 270.425171 252.579583 270.822976 
C 252.181779 271.22078 251.958263 271.760395 251.958263 272.322976 
C 251.958263 272.885556 252.181779 273.425171 252.579583 273.822976 
C 252.977388 274.22078 253.517003 274.444296 254.079583 274.444296 
z
" clip-path="url(#p8eb5927e5f)" style="fill: #555555; fill-opacity: 0.75"/>
   </g>
   <g id="PathCollection_4">
    <path d="M 336.74625 273.734872 
C 337.308831 273.734872 337.848445 273.511356 338.24625 273.113551 
C 338.644055 272.715747 338.86757 272.176132 338.86757 271.613551 
C 338.86757 271.050971 338.644055 270.511356 338.24625 270.113551 
C 337.848445 269.715747 337.308831 269.492231 336.74625 269.492231 
C 336.183669 269.492231 335.644055 269.715747 335.24625 270.113551 
C 334.848445 270.511356 334.62493 271.050971 334.62493 271.613551 
C 334.62493 272.176132 334.848445 272.715747 335.24625 273.113551 
C 335.644055 273.511356 336.183669 273.734872 336.74625 273.734872 
z
" clip-path="url(#p8eb5927e5f)" style="fill: #555555; fill-opacity: 0.75"/>
   </g>
   <g id="text_11">
    <text style="font-weight: 700; font-size: 12px; font-family: 'Arial'; text-anchor: middle" x="130.079583" y="97.115767" transform="rotate(-0 130.079583 97.115767)">ns</text>
   </g>
   <g id="text_12">
    <text style="font-weight: 700; font-size: 12px; font-family: 'Arial'; text-anchor: middle" x="171.412917" y="78.369821" transform="rotate(-0 171.412917 78.369821)">***</text>
   </g>
   <g id="text_13">
    <text style="font-weight: 700; font-size: 12px; font-family: 'Arial'; text-anchor: middle" x="212.74625" y="59.623875" transform="rotate(-0 212.74625 59.623875)">****</text>
   </g>
   <g id="text_14">
    <text style="font-size: 12px; font-family: 'Arial'; text-anchor: middle" x="212.74625" y="55.992" transform="rotate(-0 212.74625 55.992)">A-009</text>
   </g>
  </g>
  <g id="text_15">
   <text style="font-size: 13px; font-family: 'Arial'; text-anchor: middle" x="190.34625" y="16.505156" transform="rotate(-0 190.34625 16.505156)">Perfusion</text>
  </g>
 </g>
 <defs>
  <clipPath id="p8eb5927e5f">
   <rect x="51.54625" y="61.992" width="322.4" height="231.2"/>
  </clipPath>
 </defs>
</svg>
