<?xml version="1.0" encoding="utf-8" standalone="no"?>
<!DOCTYPE svg PUBLIC "-//W3C//DTD SVG 1.1//EN"
  "http://www.w3.org/Graphics/SVG/1.1/DTD/svg11.dtd">
<svg xmlns:xlink="http://www.w3.org/1999/xlink" width="379.70625pt" height="319.537312pt" viewBox="0 0 379.70625 319.537312" xmlns="http://www.w3.org/2000/svg" version="1.1">
 <metadata>
  <rdf:RDF xmlns:dc="http://purl.org/dc/elements/1.1/" xmlns:cc="http://creativecommons.org/ns#" xmlns:rdf="http://www.w3.org/1999/02/22-rdf-syntax-ns#">
   <cc:Work>
    <dc:type rdf:resource="http://purl.org/dc/dcmitype/StillImage"/>
    <dc:date>2026-07-30T14:45:40.942979</dc:date>
    <dc:format>image/svg+xml</dc:format>
    <dc:creator>
     <cc:Agent>
      <dc:title>Matplotlib v3.10.6, https://matplotlib.org/</dc:title>
     </cc:Agent>
    </dc:creator>
   </cc:Work>
  </rdf:RDF>
 </metadata>
 <defs>
  <style type="text/css">*{stroke-linejoin: round; stroke-linecap: butt}</style>
 </defs>
 <g id="figure_1">
  <g id="patch_1">
   <path d="M 0 319.537312 
L 379.70625 319.537312 
L 379.70625 0 
L 0 0 
z
" style="fill: #ffffff"/>
  </g>
  <g id="axes_1">
   <g id="patch_2">
    <path d="M 51.54625 293.192 
L 372.50625 293.192 
L 372.50625 46.992 
L 51.54625 46.992 
z
" style="fill: #ffffff"/>
   </g>
   <g id="line2d_1">
    <path d="M 51.54625 239.238959 
L 372.50625 239.238959 
" clip-path="url(#p7e9fdaf14b)" style="fill: none; stroke: #000000; stroke-width: 0.9; stroke-linecap: square"/>
   </g>
   <g id="matplotlib.axis_1">
    <g id="xtick_1">
     <g id="line2d_2">
      <defs>
       <path id="m95453d79e2" d="M 0 0 
L 0 4 
" style="stroke: #000000"/>
      </defs>
      <g>
       <use xlink:href="#m95453d79e2" x="88.580096" y="293.192" style="stroke: #000000"/>
      </g>
     </g>
     <g id="text_1">
      <text style="font-size: 10px; font-family: 'Arial'; text-anchor: middle" x="88.580096" y="310.349812" transform="rotate(-0 88.580096 310.349812)">Baseline</text>
     </g>
    </g>
    <g id="xtick_2">
     <g id="line2d_3">
      <g>
       <use xlink:href="#m95453d79e2" x="170.877532" y="293.192" style="stroke: #000000"/>
      </g>
     </g>
     <g id="text_2">
      <text style="font-size: 10px; font-family: 'Arial'; text-anchor: middle" x="170.877532" y="310.349812" transform="rotate(-0 170.877532 310.349812)">H2O2 1mM first half</text>
     </g>
    </g>
    <g id="xtick_3">
     <g id="line2d_4">
      <g>
       <use xlink:href="#m95453d79e2" x="253.174968" y="293.192" style="stroke: #000000"/>
      </g>
     </g>
     <g id="text_3">
      <text style="font-size: 10px; font-family: 'Arial'; text-anchor: middle" x="253.174968" y="310.349812" transform="rotate(-0 253.174968 310.349812)">H2O2 1mM second half</text>
     </g>
    </g>
    <g id="xtick_4">
     <g id="line2d_5">
      <g>
       <use xlink:href="#m95453d79e2" x="335.472404" y="293.192" style="stroke: #000000"/>
      </g>
     </g>
     <g id="text_4">
      <text style="font-size: 10px; font-family: 'Arial'; text-anchor: middle" x="335.472404" y="310.349812" transform="rotate(-0 335.472404 310.349812)">Post 1</text>
     </g>
    </g>
   </g>
   <g id="matplotlib.axis_2">
    <g id="ytick_1">
     <g id="line2d_6">
      <defs>
       <path id="mfa1b583957" d="M 0 0 
L -4 0 
" style="stroke: #000000"/>
      </defs>
      <g>
       <use xlink:href="#mfa1b583957" x="51.54625" y="278.434019" style="stroke: #000000"/>
      </g>
     </g>
     <g id="text_5">
      <text style="font-size: 10px; font-family: 'Arial'; text-anchor: end" x="44.04625" y="282.012926" transform="rotate(-0 44.04625 282.012926)">−100</text>
     </g>
    </g>
    <g id="ytick_2">
     <g id="line2d_7">
      <g>
       <use xlink:href="#mfa1b583957" x="51.54625" y="239.238959" style="stroke: #000000"/>
      </g>
     </g>
     <g id="text_6">
      <text style="font-size: 10px; font-family: 'Arial'; text-anchor: end" x="44.04625" y="242.817865" transform="rotate(-0 44.04625 242.817865)">0</text>
     </g>
    </g>
    <g id="ytick_3">
     <g id="line2d_8">
      <g>
       <use xlink:href="#mfa1b583957" x="51.54625" y="200.043898" style="stroke: #000000"/>
      </g>
     </g>
     <g id="text_7">
      <text style="font-size: 10px; font-family: 'Arial'; text-anchor: end" x="44.04625" y="203.622804" transform="rotate(-0 44.04625 203.622804)">100</text>
     </g>
    </g>
    <g id="ytick_4">
     <g id="line2d_9">
      <g>
       <use xlink:href="#mfa1b583957" x="51.54625" y="160.848838" style="stroke: #000000"/>
      </g>
     </g>
     <g id="text_8">
      <text style="font-size: 10px; font-family: 'Arial'; text-anchor: end" x="44.04625" y="164.427744" transform="rotate(-0 44.04625 164.427744)">200</text>
     </g>
    </g>
    <g id="ytick_5">
     <g id="line2d_10">
      <g>
       <use xlink:href="#mfa1b583957" x="51.54625" y="121.653777" style="stroke: #000000"/>
      </g>
     </g>
     <g id="text_9">
      <text style="font-size: 10px; font-family: 'Arial'; text-anchor: end" x="44.04625" y="125.232683" transform="rotate(-0 44.04625 125.232683)">300</text>
     </g>
    </g>
    <g id="ytick_6">
     <g id="line2d_11">
      <g>
       <use xlink:href="#mfa1b583957" x="51.54625" y="82.458717" style="stroke: #000000"/>
      </g>
     </g>
     <g id="text_10">
      <text style="font-size: 10px; font-family: 'Arial'; text-anchor: end" x="44.04625" y="86.037623" transform="rotate(-0 44.04625 86.037623)">400</text>
     </g>
    </g>
    <g id="text_11">
     <text style="font-size: 11px; font-family: 'Arial'; text-anchor: middle" x="15.207656" y="170.092" transform="rotate(-90 15.207656 170.092)">Firing change from Baseline (%)</text>
    </g>
   </g>
   <g id="patch_3">
    <path d="M 63.067891 239.238959 
L 114.092301 239.238959 
L 114.092301 247.559961 
L 63.067891 247.559961 
z
" clip-path="url(#p7e9fdaf14b)" style="fill: #ffffff; stroke: #000000; stroke-width: 1.1; stroke-linejoin: miter"/>
   </g>
   <g id="patch_4">
    <path d="M 145.365327 239.238959 
L 196.389737 239.238959 
L 196.389737 170.492171 
L 145.365327 170.492171 
z
" clip-path="url(#p7e9fdaf14b)" style="fill: #777777; stroke: #000000; stroke-width: 1.1; stroke-linejoin: miter"/>
   </g>
   <g id="patch_5">
    <path d="M 227.662763 239.238959 
L 278.687173 239.238959 
L 278.687173 274.504491 
L 227.662763 274.504491 
z
" clip-path="url(#p7e9fdaf14b)" style="fill: #777777; stroke: #000000; stroke-width: 1.1; stroke-linejoin: miter"/>
   </g>
   <g id="patch_6">
    <path d="M 309.960199 239.238959 
L 360.984609 239.238959 
L 360.984609 273.869226 
L 309.960199 273.869226 
z
" clip-path="url(#p7e9fdaf14b)" style="stroke: #000000; stroke-width: 1.1; stroke-linejoin: miter"/>
   </g>
   <g id="line2d_12">
    <path d="M 73.766558 125.328364 
L 73.766558 119.732909 
L 103.393635 119.732909 
L 103.393635 125.328364 
" clip-path="url(#p7e9fdaf14b)" style="fill: none; stroke: #000000; stroke-linecap: square"/>
   </g>
   <g id="line2d_13">
    <path d="M 88.580096 107.143136 
L 88.580096 101.547682 
L 170.877532 101.547682 
L 170.877532 107.143136 
" clip-path="url(#p7e9fdaf14b)" style="fill: none; stroke: #000000; stroke-linecap: square"/>
   </g>
   <g id="line2d_14">
    <path d="M 88.580096 91.755636 
L 88.580096 86.160182 
L 253.174968 86.160182 
L 253.174968 91.755636 
" clip-path="url(#p7e9fdaf14b)" style="fill: none; stroke: #000000; stroke-linecap: square"/>
   </g>
   <g id="line2d_15">
    <path d="M 88.580096 76.368136 
L 88.580096 70.772682 
L 335.472404 70.772682 
L 335.472404 76.368136 
" clip-path="url(#p7e9fdaf14b)" style="fill: none; stroke: #000000; stroke-linecap: square"/>
   </g>
   <g id="LineCollection_1">
    <path d="M 88.580096 248.386215 
L 88.580096 246.733707 
" clip-path="url(#p7e9fdaf14b)" style="fill: none; stroke: #000000"/>
   </g>
   <g id="line2d_16">
    <defs>
     <path id="mf24bb2a736" d="M 4 0 
L -4 -0 
" style="stroke: #000000"/>
    </defs>
    <g clip-path="url(#p7e9fdaf14b)">
     <use xlink:href="#mf24bb2a736" x="88.580096" y="248.386215" style="fill: #1f77b4; stroke: #000000"/>
    </g>
   </g>
   <g id="line2d_17">
    <g clip-path="url(#p7e9fdaf14b)">
     <use xlink:href="#mf24bb2a736" x="88.580096" y="246.733707" style="fill: #1f77b4; stroke: #000000"/>
    </g>
   </g>
   <g id="LineCollection_2">
    <path d="M 170.877532 204.465068 
L 170.877532 136.519273 
" clip-path="url(#p7e9fdaf14b)" style="fill: none; stroke: #000000"/>
   </g>
   <g id="line2d_18">
    <g clip-path="url(#p7e9fdaf14b)">
     <use xlink:href="#mf24bb2a736" x="170.877532" y="204.465068" style="fill: #1f77b4; stroke: #000000"/>
    </g>
   </g>
   <g id="line2d_19">
    <g clip-path="url(#p7e9fdaf14b)">
     <use xlink:href="#mf24bb2a736" x="170.877532" y="136.519273" style="fill: #1f77b4; stroke: #000000"/>
    </g>
   </g>
   <g id="LineCollection_3">
    <path d="M 253.174968 276.405636 
L 253.174968 272.603346 
" clip-path="url(#p7e9fdaf14b)" style="fill: none; stroke: #000000"/>
   </g>
   <g id="line2d_20">
    <g clip-path="url(#p7e9fdaf14b)">
     <use xlink:href="#mf24bb2a736" x="253.174968" y="276.405636" style="fill: #1f77b4; stroke: #000000"/>
    </g>
   </g>
   <g id="line2d_21">
    <g clip-path="url(#p7e9fdaf14b)">
     <use xlink:href="#mf24bb2a736" x="253.174968" y="272.603346" style="fill: #1f77b4; stroke: #000000"/>
    </g>
   </g>
   <g id="LineCollection_4">
    <path d="M 335.472404 275.937529 
L 335.472404 271.800923 
" clip-path="url(#p7e9fdaf14b)" style="fill: none; stroke: #000000"/>
   </g>
   <g id="line2d_22">
    <g clip-path="url(#p7e9fdaf14b)">
     <use xlink:href="#mf24bb2a736" x="335.472404" y="275.937529" style="fill: #1f77b4; stroke: #000000"/>
    </g>
   </g>
   <g id="line2d_23">
    <g clip-path="url(#p7e9fdaf14b)">
     <use xlink:href="#mf24bb2a736" x="335.472404" y="271.800923" style="fill: #1f77b4; stroke: #000000"/>
    </g>
   </g>
   <g id="patch_7">
    <path d="M 51.54625 293.192 
L 51.54625 46.992 
" style="fill: none; stroke: #000000; stroke-width: 1.1; stroke-linejoin: miter; stroke-linecap: square"/>
   </g>
   <g id="patch_8">
    <path d="M 51.54625 293.192 
L 372.50625 293.192 
" style="fill: none; stroke: #000000; stroke-linejoin: miter; stroke-linecap: square"/>
   </g>
   <g id="PathCollection_1">
    <path d="M 88.580096 249.681281 
C 89.142677 249.681281 89.682292 249.457766 90.080096 249.059961 
C 90.477901 248.662156 90.701416 248.122542 90.701416 247.559961 
C 90.701416 246.99738 90.477901 246.457766 90.080096 246.059961 
C 89.682292 245.662156 89.142677 245.438641 88.580096 245.438641 
C 88.017515 245.438641 87.477901 245.662156 87.080096 246.059961 
C 86.682292 246.457766 86.458776 246.99738 86.458776 247.559961 
C 86.458776 248.122542 86.682292 248.662156 87.080096 249.059961 
C 87.477901 249.457766 88.017515 249.681281 88.580096 249.681281 
z
" clip-path="url(#p7e9fdaf14b)" style="fill: #555555; fill-opacity: 0.75"/>
   </g>
   <g id="PathCollection_2">
    <path d="M 170.877532 172.613491 
C 171.440113 172.613491 171.979727 172.389975 172.377532 171.992171 
C 172.775337 171.594366 172.998852 171.054751 172.998852 170.492171 
C 172.998852 169.92959 172.775337 169.389975 172.377532 168.992171 
C 171.979727 168.594366 171.440113 168.37085 170.877532 168.37085 
C 170.314951 168.37085 169.775337 168.594366 169.377532 168.992171 
C 168.979727 169.389975 168.756212 169.92959 168.756212 170.492171 
C 168.756212 171.054751 168.979727 171.594366 169.377532 171.992171 
C 169.775337 172.389975 170.314951 172.613491 170.877532 172.613491 
z
" clip-path="url(#p7e9fdaf14b)" style="fill: #555555; fill-opacity: 0.75"/>
   </g>
   <g id="PathCollection_3">
    <path d="M 253.174968 276.625811 
C 253.737549 276.625811 254.277163 276.402296 254.674968 276.004491 
C 255.072773 275.606686 255.296288 275.067072 255.296288 274.504491 
C 255.296288 273.94191 255.072773 273.402296 254.674968 273.004491 
C 254.277163 272.606686 253.737549 272.383171 253.174968 272.383171 
C 252.612387 272.383171 252.072773 272.606686 251.674968 273.004491 
C 251.277163 273.402296 251.053648 273.94191 251.053648 274.504491 
C 251.053648 275.067072 251.277163 275.606686 251.674968 276.004491 
C 252.072773 276.402296 252.612387 276.625811 253.174968 276.625811 
z
" clip-path="url(#p7e9fdaf14b)" style="fill: #555555; fill-opacity: 0.75"/>
   </g>
   <g id="PathCollection_4">
    <path d="M 335.472404 275.990546 
C 336.034985 275.990546 336.574599 275.76703 336.972404 275.369226 
C 337.370208 274.971421 337.593724 274.431806 337.593724 273.869226 
C 337.593724 273.306645 337.370208 272.76703 336.972404 272.369226 
C 336.574599 271.971421 336.034985 271.747905 335.472404 271.747905 
C 334.909823 271.747905 334.370208 271.971421 333.972404 272.369226 
C 333.574599 272.76703 333.351084 273.306645 333.351084 273.869226 
C 333.351084 274.431806 333.574599 274.971421 333.972404 275.369226 
C 334.370208 275.76703 334.909823 275.990546 335.472404 275.990546 
z
" clip-path="url(#p7e9fdaf14b)" style="fill: #555555; fill-opacity: 0.75"/>
   </g>
   <g id="text_12">
    <text style="font-weight: 700; font-size: 12px; font-family: 'Arial'; text-anchor: middle" x="88.580096" y="117.364784" transform="rotate(-0 88.580096 117.364784)">ns</text>
   </g>
   <g id="text_13">
    <text style="font-weight: 700; font-size: 12px; font-family: 'Arial'; text-anchor: middle" x="129.728814" y="99.179557" transform="rotate(-0 129.728814 99.179557)">ns</text>
   </g>
   <g id="text_14">
    <text style="font-weight: 700; font-size: 12px; font-family: 'Arial'; text-anchor: middle" x="170.877532" y="83.792057" transform="rotate(-0 170.877532 83.792057)">***</text>
   </g>
   <g id="text_15">
    <text style="font-weight: 700; font-size: 12px; font-family: 'Arial'; text-anchor: middle" x="212.02625" y="68.404557" transform="rotate(-0 212.02625 68.404557)">****</text>
   </g>
  </g>
  <g id="text_16">
   <text style="font-size: 13px; font-family: 'Arial'; text-anchor: middle" x="189.62625" y="16.505156" transform="rotate(-0 189.62625 16.505156)">Perfusion</text>
  </g>
 </g>
 <defs>
  <clipPath id="p7e9fdaf14b">
   <rect x="51.54625" y="46.992" width="320.96" height="246.2"/>
  </clipPath>
 </defs>
</svg>
